{"title":"And.Soon.The.Darkness.2010.720p.BRRip.x264.Feel-Free","uid":6053993,"size":1725741032,"categoryP":"video","categoryS":"hd___movies","magnet":"?xt=urn:btih:232ad23c535b21c21e5581018fef4b0b539f0d9c&amp;dn=And.Soon.The.Darkness.2010.720p.BRRip.x264.Feel-Free&amp;tr=udp%3A%2F%2Ftracker.openbittorrent.com%3A80&amp;tr=udp%3A%2F%2Fopen.demonii.com%3A1337&amp;tr=udp%3A%2F%2Ftracker.coppersurfer.tk%3A6969&amp;tr=udp%3A%2F%2Fexodus.desync.com%3A6969","seeders":0,"leechers":2,"uploader":"hiest","files":-1,"time":1292834597,"description":"Genre:Horror | Thriller \nLanguage:English\nIMDb:http://www.imdb.com/title/tt1391034/\nSource:BluRay.x264-Japhson\n\n\nFormat : Matroska\nFile size : 1.60 GiB\nDuration : 1h 31mn\nOverall bit rate : 2 512 Kbps\n\n\nVideo\nFormat settings, CABAC : Yes\nFormat settings, ReFrames : 4 frames\nCodec ID : V_MPEG4/ISO/AVC\nDuration : 1h 31mn\nBit rate : 2 078 Kbps\nNominal bit rate : 2 200 Kbps\nWidth : 1 280 pixels\nHeight : 528 pixels\nDisplay aspect ratio : 2.40:1\nFrame rate mode : Variable\nFrame rate : 23.976 fps\nColor space : YUV\nChroma subsampling : 4:2:0\nBit depth : 8 bits\nScan type : Progressive\nBits/(Pixel*Frame) : 0.128\nStream size : 1.33 GiB (83%)\nWriting library : x264\n\n\nAudio\nID : 2\nFormat : AC-3\nFormat/Info : Audio Coding 3\nMode extension : CM (complete main)\nCodec ID : A_AC3\nDuration : 1h 31mn\nBit rate mode : Constant\nBit rate : 384 Kbps\nChannel(s) : 6 channels\nChannel positions : Front: L C R, Side: L R, LFE\nSampling rate : 48.0 KHz\nBit depth : 16 bits\nVideo delay : -1mn 5s\nStream size : 251 MiB (15%)\nLanguage : English\n\n\n\nPlot:\nWhen two American girls on a bike trip in a remote part of Argentina split up and one of them goes missing, the other must find her before her worst fears are realized\n\n\n\n\n\n\n\n\n================================== &lt;a href=&quot;\nhttp://thepiratebay.se/user/hiest&quot; rel=&quot;nofollow&quot; target=&quot;_NEW&quot;&gt;\nhttp://thepiratebay.se/user/hiest&lt;/a&gt;\n==================================\n\n\n\n\n\n\n\n\nScreen Shots:\n &lt;a href=&quot;\nhttp://rapidhdd.com/images/206482vlcsnap-2010-12-20-09h29m41s37.png&quot; rel=&quot;nofollow&quot; target=&quot;_NEW&quot;&gt;\nhttp://rapidhdd.com/images/206482vlcsnap-2010-12-20-09h29m41s37.png&lt;/a&gt;\n &lt;a href=&quot;\nhttp://www.rapidhdd.com/images/69092vlcsnap-2010-12-20-09h30m39s107.png&quot; rel=&quot;nofollow&quot; target=&quot;_NEW&quot;&gt;\nhttp://www.rapidhdd.com/images/69092vlcsnap-2010-12-20-09h30m39s107.png&lt;/a&gt;\n &lt;a href=&quot;\nhttp://www.rapidhdd.com/images/603719vlcsnap-2010-12-20-09h31m27s77.png&quot; rel=&quot;nofollow&quot; target=&quot;_NEW&quot;&gt;\nhttp://www.rapidhdd.com/images/603719vlcsnap-2010-12-20-09h31m27s77.png&lt;/a&gt;\n &lt;a href=&quot;\nhttp://www.rapidhdd.com/images/825527vlcsnap-2010-12-20-09h30m03s248.png&quot; rel=&quot;nofollow&quot; target=&quot;_NEW&quot;&gt;\nhttp://www.rapidhdd.com/images/825527vlcsnap-2010-12-20-09h30m03s248.png&lt;/a&gt;\n &lt;a href=&quot;\nhttp://www.rapidhdd.com/images/813527vlcsnap-2010-12-20-09h32m02s171.png&quot; rel=&quot;nofollow&quot; target=&quot;_NEW&quot;&gt;\nhttp://www.rapidhdd.com/images/813527vlcsnap-2010-12-20-09h32m02s171.png&lt;/a&gt;\n\n","torrent":{"xt":"urn:btih:232ad23c535b21c21e5581018fef4b0b539f0d9c","amp;dn":"And.Soon.The.Darkness.2010.720p.BRRip.x264.Feel-Free","amp;tr":["udp%3A%2F%2Ftracker.openbittorrent.com%3A80","udp%3A%2F%2Fopen.demonii.com%3A1337","udp%3A%2F%2Ftracker.coppersurfer.tk%3A6969","udp%3A%2F%2Fexodus.desync.com%3A6969"],"infoHash":"232ad23c535b21c21e5581018fef4b0b539f0d9c","infoHashBuffer":{"type":"Buffer","data":[35,42,210,60,83,91,33,194,30,85,129,1,143,239,75,11,83,159,13,156]},"announce":[],"urlList":[]}}